<mxfile host="Electron" modified="2024-01-10T07:42:16.234Z" agent="Mozilla/5.0 (Windows NT 10.0; Win64; x64) AppleWebKit/537.36 (KHTML, like Gecko) draw.io/22.1.11 Chrome/114.0.5735.289 Electron/25.9.8 Safari/537.36" etag="UugwbQzMrB8-uTdbLXI_" version="22.1.11" type="device" pages="2">
  <diagram name="Этап 1 - RU" id="BYUriql7j9smPTXgBmF-">
    <mxGraphModel dx="3072" dy="1997" grid="1" gridSize="10" guides="1" tooltips="1" connect="1" arrows="1" fold="1" page="1" pageScale="1" pageWidth="827" pageHeight="1169" math="0" shadow="0">
      <root>
        <mxCell id="0" />
        <mxCell id="1" parent="0" />
        <UserObject label="&lt;font color=&quot;#000000&quot;&gt;&lt;b&gt;Classes&lt;/b&gt;&lt;/font&gt;&lt;br&gt;&lt;font color=&quot;#ff66b3&quot;&gt;problem&lt;br&gt;student&lt;br&gt;session&lt;br&gt;answer&lt;br&gt;has_error&lt;br&gt;data_element&lt;br&gt;phrase&lt;br&gt;data_element_identifying(answer)&lt;br&gt;&lt;/font&gt;" expression_0="" expression_1="" expression_2="" expression_3="" expression_4="" expression_5="" expression_6="" expression_7="" expression_8="" expression_9="" expression_10="" expression_11="" expression_12="" expression_13="" expression_14="" expression_15="" expression_16="" expression_17="" expression_18="" expression_19="" expression_20="" expression_21="" expression_22="" expression_23="" expression_24="" expression_25="" expression_26="" expression_27="" expression_28="" expression_29="" expression_30="" expression_31="" expression_32="" expression_33="" expression_34="" expression_35="" expression_36="" id="5BQkz-PA7SiNGCi2qH3s-1">
          <mxCell style="shape=note;whiteSpace=wrap;html=1;backgroundOutline=1;darkOpacity=0.05;fontColor=#6666FF;align=center;editable=1;movable=1;resizable=1;rotatable=1;deletable=1;locked=0;connectable=1;" parent="1" vertex="1">
            <mxGeometry x="-808" y="-1000" width="267" height="130" as="geometry" />
          </mxCell>
        </UserObject>
        <mxCell id="5BQkz-PA7SiNGCi2qH3s-2" value="&lt;b&gt;&lt;font color=&quot;#000000&quot;&gt;Class and Object properties&lt;br&gt;&lt;/font&gt;&lt;/b&gt;&lt;br&gt;&lt;font style=&quot;border-color: var(--border-color);&quot; color=&quot;#00CC00&quot;&gt;has_direction&lt;/font&gt;&amp;nbsp;(&lt;font color=&quot;#fc49a4&quot;&gt;answer&lt;/font&gt;) &lt;font color=&quot;#000000&quot;&gt;enum: direction&amp;nbsp;&lt;/font&gt;&lt;font style=&quot;border-color: var(--border-color);&quot; color=&quot;#19c3c0&quot;&gt;isStatic:&lt;/font&gt;&amp;nbsp;&lt;font style=&quot;border-color: var(--border-color);&quot; color=&quot;#000000&quot;&gt;false&lt;/font&gt;&lt;br&gt;&lt;font style=&quot;border-color: var(--border-color);&quot; color=&quot;#00CC00&quot;&gt;has_right_border&lt;/font&gt;&amp;nbsp;(&lt;font style=&quot;border-color: var(--border-color);&quot; color=&quot;#fc49a4&quot;&gt;phrase&lt;/font&gt;)&amp;nbsp;&lt;font style=&quot;border-color: var(--border-color);&quot; color=&quot;#000000&quot;&gt;Integer&lt;/font&gt;&lt;font style=&quot;border-color: var(--border-color);&quot; color=&quot;#000000&quot;&gt;: 0-999&lt;/font&gt;&amp;nbsp;&lt;font style=&quot;border-color: var(--border-color);&quot; color=&quot;#19c3c0&quot;&gt;isStatic:&lt;/font&gt;&amp;nbsp;&lt;font style=&quot;border-color: var(--border-color);&quot; color=&quot;#000000&quot;&gt;false&lt;/font&gt;&lt;br style=&quot;border-color: var(--border-color);&quot;&gt;&lt;font style=&quot;border-color: var(--border-color);&quot; color=&quot;#00CC00&quot;&gt;has_left_border&lt;/font&gt;&amp;nbsp;(&lt;font style=&quot;border-color: var(--border-color);&quot; color=&quot;#fc49a4&quot;&gt;data_element_identifying&lt;/font&gt;)&amp;nbsp;&lt;font style=&quot;border-color: var(--border-color);&quot; color=&quot;#000000&quot;&gt;Integer&lt;/font&gt;&lt;font style=&quot;border-color: var(--border-color);&quot; color=&quot;#000000&quot;&gt;: 0-999&lt;/font&gt;&amp;nbsp;&lt;font style=&quot;border-color: var(--border-color);&quot; color=&quot;#19c3c0&quot;&gt;isStatic:&lt;/font&gt;&amp;nbsp;&lt;font style=&quot;border-color: var(--border-color);&quot; color=&quot;#000000&quot;&gt;false&lt;/font&gt;&lt;br style=&quot;border-color: var(--border-color);&quot;&gt;&lt;font style=&quot;border-color: var(--border-color);&quot; color=&quot;#00CC00&quot;&gt;has_right_border&lt;/font&gt;&amp;nbsp;(&lt;font style=&quot;border-color: var(--border-color);&quot; color=&quot;#fc49a4&quot;&gt;data_element_identifying&lt;/font&gt;)&amp;nbsp;&lt;font style=&quot;border-color: var(--border-color);&quot; color=&quot;#000000&quot;&gt;Integer&lt;/font&gt;&lt;font style=&quot;border-color: var(--border-color);&quot; color=&quot;#000000&quot;&gt;: 0-999&lt;/font&gt;&amp;nbsp;&lt;font style=&quot;border-color: var(--border-color);&quot; color=&quot;#19c3c0&quot;&gt;isStatic:&lt;/font&gt;&amp;nbsp;&lt;font style=&quot;border-color: var(--border-color);&quot; color=&quot;#000000&quot;&gt;false&lt;/font&gt;" style="shape=note;whiteSpace=wrap;html=1;backgroundOutline=1;darkOpacity=0.05;fontColor=#00CCCC;align=center;editable=1;movable=1;resizable=1;rotatable=1;deletable=1;locked=0;connectable=1;" parent="1" vertex="1">
          <mxGeometry x="-527.47" y="-1140" width="667.47" height="140" as="geometry" />
        </mxCell>
        <UserObject label="&lt;b&gt;&lt;font color=&quot;#000000&quot;&gt;Relationships between objects&lt;/font&gt;&lt;/b&gt;&lt;br&gt;&lt;font color=&quot;#00cccc&quot;&gt;has_data&lt;/font&gt;&amp;nbsp;&lt;font color=&quot;#6666FF&quot;&gt;classes:&lt;/font&gt; &lt;font color=&quot;#ff66b3&quot;&gt;problem, data_element&lt;/font&gt;&amp;nbsp;&lt;font color=&quot;#6666FF&quot;&gt;is relationship between classes:&lt;/font&gt; &lt;font color=&quot;#000000&quot;&gt;false&lt;/font&gt;&lt;br style=&quot;border-color: var(--border-color);&quot;&gt;&lt;font color=&quot;#00cccc&quot;&gt;describes&lt;/font&gt;&amp;nbsp;&lt;font style=&quot;border-color: var(--border-color);&quot; color=&quot;#6666FF&quot;&gt;classes:&lt;/font&gt;&amp;nbsp;&lt;font style=&quot;border-color: var(--border-color);&quot; color=&quot;#ff66b3&quot;&gt;phrase, data_element&lt;/font&gt;&amp;nbsp;&lt;font style=&quot;border-color: var(--border-color);&quot; color=&quot;#6666FF&quot;&gt;is relationship between classes:&lt;/font&gt;&amp;nbsp;&lt;font style=&quot;border-color: var(--border-color);&quot; color=&quot;#000000&quot;&gt;false&lt;br&gt;&lt;/font&gt;&lt;font color=&quot;#00cccc&quot;&gt;has_error&lt;/font&gt;&amp;nbsp;&lt;font style=&quot;border-color: var(--border-color);&quot; color=&quot;#6666FF&quot;&gt;classes:&lt;/font&gt;&amp;nbsp;&lt;font style=&quot;border-color: var(--border-color);&quot; color=&quot;#ff66b3&quot;&gt;answer, error&lt;/font&gt;&amp;nbsp;&lt;font style=&quot;border-color: var(--border-color);&quot; color=&quot;#6666FF&quot;&gt;is relationship between classes:&lt;/font&gt;&amp;nbsp;&lt;font style=&quot;border-color: var(--border-color);&quot; color=&quot;#000000&quot;&gt;false&lt;/font&gt;&lt;font color=&quot;#000000&quot;&gt;&lt;br&gt;&lt;/font&gt;" namesRels_0="" binFlags_0="010100" namesRels_1="" binFlags_1="010100" namesRels_2="" binFlags_2="000000" namesRels_3="" binFlags_3="000000" namesRels_4="" binFlags_4="000000" namesRels_5="" binFlags_5="000000" namesRels_6="" binFlags_6="000000" namesRels_7="" binFlags_7="000000" namesRels_8="" binFlags_8="000000" namesRels_9="" binFlags_9="000000" namesRels_10="" binFlags_10="000000" namesRels_11="" binFlags_11="000000" namesRels_12="" binFlags_12="000000" namesRels_13="" binFlags_13="000000" namesRels_14="" binFlags_14="000000" namesRels_15="" binFlags_15="000000" namesRels_16="" binFlags_16="000000" namesRels_17="" binFlags_17="000000" namesRels_18="" binFlags_18="000000" namesRels_19="" binFlags_19="000000" namesRels_20="" binFlags_20="000000" namesRels_21="" binFlags_21="000010" namesRels_22="" binFlags_22="000000" namesRels_23="" binFlags_23="000000" namesRels_24="" binFlags_24="000000" namesRels_25="" binFlags_25="000000" namesRels_26="" binFlags_26="000000" id="5BQkz-PA7SiNGCi2qH3s-3">
          <mxCell style="shape=note;whiteSpace=wrap;html=1;backgroundOutline=1;darkOpacity=0.05;fontColor=#000000;align=center;editable=1;movable=1;resizable=1;rotatable=1;deletable=1;locked=0;connectable=1;" parent="1" vertex="1">
            <mxGeometry x="-527.47" y="-793.88" width="509.47" height="163.88" as="geometry" />
          </mxCell>
        </UserObject>
        <mxCell id="5BQkz-PA7SiNGCi2qH3s-4" value="&lt;font color=&quot;#000000&quot;&gt;&lt;b&gt;Enum&lt;br&gt;&lt;/b&gt;&lt;/font&gt;" style="shape=note;whiteSpace=wrap;html=1;backgroundOutline=1;darkOpacity=0.05;fontColor=#6666FF;align=center;editable=1;movable=1;resizable=1;rotatable=1;deletable=1;locked=0;connectable=1;" parent="1" vertex="1">
          <mxGeometry x="-1367" y="-1001" width="545" height="119" as="geometry" />
        </mxCell>
        <mxCell id="5BQkz-PA7SiNGCi2qH3s-5" value="&lt;font style=&quot;font-size: 50px;&quot;&gt;НАЧАЛО&lt;br&gt;&lt;br&gt;&lt;br&gt;&lt;br&gt;&lt;/font&gt;" style="html=1;shadow=0;dashed=0;align=center;verticalAlign=middle;shape=mxgraph.arrows2.arrow;dy=0.6;dx=40;direction=south;notch=0;" parent="1" vertex="1">
          <mxGeometry x="230" y="-1020" width="146" height="100" as="geometry" />
        </mxCell>
        <UserObject label="A - answer&lt;br&gt;P - phrase" type="START" id="5BQkz-PA7SiNGCi2qH3s-6">
          <mxCell style="shape=process;whiteSpace=wrap;html=1;backgroundOutline=1;editable=1;movable=1;resizable=1;rotatable=1;deletable=1;locked=0;connectable=1;" parent="1" vertex="1">
            <mxGeometry x="243" y="-870" width="120" height="100" as="geometry" />
          </mxCell>
        </UserObject>
        <mxCell id="5BQkz-PA7SiNGCi2qH3s-7" value="&lt;br&gt;Соответствует ли ответ&amp;nbsp;&lt;b style=&quot;border-color: var(--border-color);&quot;&gt;A&lt;/b&gt;&lt;br style=&quot;border-color: var(--border-color);&quot;&gt;&lt;div style=&quot;border-color: var(--border-color);&quot;&gt;&lt;span style=&quot;background-color: initial;&quot;&gt;какой-либо фразе &lt;b&gt;P, &lt;/b&gt;описывающей элемент данных&lt;/span&gt;&lt;/div&gt;&lt;div style=&quot;border-color: var(--border-color);&quot;&gt;&lt;b style=&quot;border-color: var(--border-color);&quot;&gt;?&lt;/b&gt;&lt;/div&gt;" style="ellipse;shape=cloud;whiteSpace=wrap;html=1;" parent="1" vertex="1">
          <mxGeometry x="460" y="-850" width="260" height="120" as="geometry" />
        </mxCell>
        <mxCell id="5BQkz-PA7SiNGCi2qH3s-8" value="" style="endArrow=none;dashed=1;html=1;dashPattern=1 3;strokeWidth=2;rounded=0;exitX=1;exitY=0.5;exitDx=0;exitDy=0;entryX=0.07;entryY=0.4;entryDx=0;entryDy=0;entryPerimeter=0;" parent="1" source="5BQkz-PA7SiNGCi2qH3s-6" target="5BQkz-PA7SiNGCi2qH3s-7" edge="1">
          <mxGeometry width="50" height="50" relative="1" as="geometry">
            <mxPoint x="376" y="-802.88" as="sourcePoint" />
            <mxPoint x="486" y="-793.88" as="targetPoint" />
          </mxGeometry>
        </mxCell>
        <UserObject label="Найти фразу &lt;b&gt;P&lt;/b&gt;&amp;nbsp; в задаче - &lt;b&gt;T&lt;/b&gt;" expression="find a { exist al [ $al is act ] { $al-&gt;student_next_latest($a) } and $p is phrase } " typeVar="phrase" nameVar="P" id="5BQkz-PA7SiNGCi2qH3s-9">
          <mxCell style="rounded=1;whiteSpace=wrap;html=1;fontFamily=Helvetica;fontSize=12;editable=1;movable=1;resizable=1;rotatable=1;deletable=1;locked=0;connectable=1;" parent="1" vertex="1">
            <mxGeometry x="240" y="-720" width="126" height="60" as="geometry" />
          </mxCell>
        </UserObject>
        <UserObject label="Начало" value="" type="bool" id="5BQkz-PA7SiNGCi2qH3s-10">
          <mxCell style="edgeStyle=orthogonalEdgeStyle;rounded=0;orthogonalLoop=1;jettySize=auto;html=1;editable=1;movable=1;resizable=1;rotatable=1;deletable=1;locked=0;connectable=1;exitX=0.5;exitY=1;exitDx=0;exitDy=0;entryX=0.5;entryY=0;entryDx=0;entryDy=0;" parent="1" source="5BQkz-PA7SiNGCi2qH3s-6" target="5BQkz-PA7SiNGCi2qH3s-9" edge="1">
            <mxGeometry relative="1" as="geometry">
              <mxPoint x="150" y="-720" as="sourcePoint" />
              <mxPoint x="150" y="-679" as="targetPoint" />
            </mxGeometry>
          </mxCell>
        </UserObject>
        <UserObject label="Найти левую границу &lt;b&gt;PL&lt;/b&gt; фразы&amp;nbsp;&lt;b&gt;P&lt;/b&gt;&amp;nbsp;" expression="$p-&gt;has_left_border" typeVar="integer" nameVar="PL" id="5BQkz-PA7SiNGCi2qH3s-11">
          <mxCell style="rounded=1;whiteSpace=wrap;html=1;fontFamily=Helvetica;fontSize=12;editable=1;movable=1;resizable=1;rotatable=1;deletable=1;locked=0;connectable=1;" parent="1" vertex="1">
            <mxGeometry x="240" y="-614" width="126" height="60" as="geometry" />
          </mxCell>
        </UserObject>
        <UserObject label="Found" typeValue="" value="Found" id="5BQkz-PA7SiNGCi2qH3s-12">
          <mxCell style="edgeStyle=orthogonalEdgeStyle;rounded=0;orthogonalLoop=1;jettySize=auto;html=1;editable=1;movable=1;resizable=1;rotatable=1;deletable=1;locked=0;connectable=1;exitX=0.5;exitY=1;exitDx=0;exitDy=0;entryX=0.5;entryY=0;entryDx=0;entryDy=0;" parent="1" source="5BQkz-PA7SiNGCi2qH3s-9" target="5BQkz-PA7SiNGCi2qH3s-11" edge="1">
            <mxGeometry relative="1" as="geometry">
              <mxPoint x="160" y="-630" as="sourcePoint" />
              <mxPoint x="160" y="-587" as="targetPoint" />
            </mxGeometry>
          </mxCell>
        </UserObject>
        <UserObject label="Найти правую границу &lt;b&gt;PR&lt;/b&gt;&amp;nbsp;фразы&amp;nbsp;&lt;b&gt;P&lt;/b&gt;&amp;nbsp;" expression="$p-&gt;has_right_border" typeVar="integer" nameVar="PR" id="5BQkz-PA7SiNGCi2qH3s-13">
          <mxCell style="rounded=1;whiteSpace=wrap;html=1;fontFamily=Helvetica;fontSize=12;editable=1;movable=1;resizable=1;rotatable=1;deletable=1;locked=0;connectable=1;" parent="1" vertex="1">
            <mxGeometry x="243" y="-520" width="126" height="60" as="geometry" />
          </mxCell>
        </UserObject>
        <UserObject label="Found" typeValue="" value="Found" id="5BQkz-PA7SiNGCi2qH3s-15">
          <mxCell style="edgeStyle=orthogonalEdgeStyle;rounded=0;orthogonalLoop=1;jettySize=auto;html=1;editable=1;movable=1;resizable=1;rotatable=1;deletable=1;locked=0;connectable=1;exitX=0.5;exitY=1;exitDx=0;exitDy=0;entryX=0.5;entryY=0;entryDx=0;entryDy=0;" parent="1" source="5BQkz-PA7SiNGCi2qH3s-11" target="5BQkz-PA7SiNGCi2qH3s-13" edge="1">
            <mxGeometry relative="1" as="geometry">
              <mxPoint x="392" y="-533" as="sourcePoint" />
              <mxPoint x="392" y="-487" as="targetPoint" />
            </mxGeometry>
          </mxCell>
        </UserObject>
        <UserObject label="Найти левую границу &lt;b&gt;AL&lt;/b&gt;&amp;nbsp;ответа &lt;b&gt;A&lt;/b&gt;&amp;nbsp;" expression="$a-&gt;has_left_border" typeVar="integer" nameVar="AL" id="5BQkz-PA7SiNGCi2qH3s-16">
          <mxCell style="rounded=1;whiteSpace=wrap;html=1;fontFamily=Helvetica;fontSize=12;editable=1;movable=1;resizable=1;rotatable=1;deletable=1;locked=0;connectable=1;" parent="1" vertex="1">
            <mxGeometry x="243" y="-420" width="126" height="60" as="geometry" />
          </mxCell>
        </UserObject>
        <UserObject label="Найти правую границу&amp;nbsp;&lt;b style=&quot;border-color: var(--border-color);&quot;&gt;AR&lt;/b&gt;&amp;nbsp;ответа&amp;nbsp;&lt;b style=&quot;border-color: var(--border-color);&quot;&gt;A&lt;/b&gt;&amp;nbsp;" expression="$a-&gt;has_right_border" typeVar="integer" nameVar="AR" id="5BQkz-PA7SiNGCi2qH3s-17">
          <mxCell style="rounded=1;whiteSpace=wrap;html=1;fontFamily=Helvetica;fontSize=12;editable=1;movable=1;resizable=1;rotatable=1;deletable=1;locked=0;connectable=1;" parent="1" vertex="1">
            <mxGeometry x="243" y="-310" width="126" height="60" as="geometry" />
          </mxCell>
        </UserObject>
        <UserObject label="Found" typeValue="" value="Found" id="5BQkz-PA7SiNGCi2qH3s-18">
          <mxCell style="edgeStyle=orthogonalEdgeStyle;rounded=0;orthogonalLoop=1;jettySize=auto;html=1;editable=1;movable=1;resizable=1;rotatable=1;deletable=1;locked=0;connectable=1;exitX=0.5;exitY=1;exitDx=0;exitDy=0;entryX=0.5;entryY=0;entryDx=0;entryDy=0;" parent="1" source="5BQkz-PA7SiNGCi2qH3s-16" target="5BQkz-PA7SiNGCi2qH3s-17" edge="1">
            <mxGeometry relative="1" as="geometry">
              <mxPoint x="395" y="-313" as="sourcePoint" />
              <mxPoint x="395" y="-267" as="targetPoint" />
            </mxGeometry>
          </mxCell>
        </UserObject>
        <UserObject label="Found" typeValue="" value="Found" id="5BQkz-PA7SiNGCi2qH3s-19">
          <mxCell style="edgeStyle=orthogonalEdgeStyle;rounded=0;orthogonalLoop=1;jettySize=auto;html=1;editable=1;movable=1;resizable=1;rotatable=1;deletable=1;locked=0;connectable=1;exitX=0.5;exitY=1;exitDx=0;exitDy=0;entryX=0.5;entryY=0;entryDx=0;entryDy=0;" parent="1" source="5BQkz-PA7SiNGCi2qH3s-13" target="5BQkz-PA7SiNGCi2qH3s-16" edge="1">
            <mxGeometry relative="1" as="geometry">
              <mxPoint x="306" y="-440" as="sourcePoint" />
              <mxPoint x="163" y="-367" as="targetPoint" />
            </mxGeometry>
          </mxCell>
        </UserObject>
        <UserObject label="Совпадают ли границы&amp;nbsp;&lt;b&gt;PL&lt;/b&gt; и&amp;nbsp;&lt;b&gt;AL&lt;/b&gt; ?" expression="var:B == var:Z" id="5BQkz-PA7SiNGCi2qH3s-20">
          <mxCell style="ellipse;whiteSpace=wrap;html=1;rounded=0;editable=1;movable=1;resizable=1;rotatable=1;deletable=1;locked=0;connectable=1;" parent="1" vertex="1">
            <mxGeometry x="226" y="-210.00000000000006" width="160" height="65" as="geometry" />
          </mxCell>
        </UserObject>
        <UserObject label="Found" typeValue="" value="Found" id="5BQkz-PA7SiNGCi2qH3s-21">
          <mxCell style="edgeStyle=orthogonalEdgeStyle;rounded=0;orthogonalLoop=1;jettySize=auto;html=1;editable=1;movable=1;resizable=1;rotatable=1;deletable=1;locked=0;connectable=1;exitX=0.5;exitY=1;exitDx=0;exitDy=0;entryX=0.5;entryY=0;entryDx=0;entryDy=0;" parent="1" source="5BQkz-PA7SiNGCi2qH3s-17" target="5BQkz-PA7SiNGCi2qH3s-20" edge="1">
            <mxGeometry relative="1" as="geometry">
              <mxPoint x="430" y="-220" as="sourcePoint" />
              <mxPoint x="590" y="-220" as="targetPoint" />
            </mxGeometry>
          </mxCell>
        </UserObject>
      </root>
    </mxGraphModel>
  </diagram>
  <diagram id="ASnP_OVEBjfT458XqjkX" name="Этап 2 - RU">
    <mxGraphModel dx="3072" dy="1997" grid="1" gridSize="10" guides="1" tooltips="1" connect="1" arrows="1" fold="1" page="1" pageScale="1" pageWidth="827" pageHeight="1169" math="0" shadow="0">
      <root>
        <mxCell id="0" />
        <mxCell id="1" parent="0" />
        <UserObject label="&lt;font color=&quot;#000000&quot;&gt;&lt;b&gt;Classes&lt;/b&gt;&lt;/font&gt;&lt;br&gt;&lt;font color=&quot;#ff66b3&quot;&gt;problem&lt;br&gt;student&lt;br&gt;session&lt;br&gt;answer&lt;br&gt;has_error&lt;br&gt;data_element&lt;br&gt;data_element_direction_choice(answer)&lt;br&gt;&lt;/font&gt;" expression_0="" expression_1="" expression_2="" expression_3="" expression_4="" expression_5="" expression_6="" expression_7="" expression_8="" expression_9="" expression_10="" expression_11="" expression_12="" expression_13="" expression_14="" expression_15="" expression_16="" expression_17="" expression_18="" expression_19="" expression_20="" expression_21="" expression_22="" expression_23="" expression_24="" expression_25="" expression_26="" expression_27="" expression_28="" expression_29="" expression_30="" expression_31="" expression_32="" expression_33="" expression_34="" expression_35="" expression_36="" id="zwzRF9QWTuGjVV0RkywK-1">
          <mxCell style="shape=note;whiteSpace=wrap;html=1;backgroundOutline=1;darkOpacity=0.05;fontColor=#6666FF;align=center;editable=1;movable=1;resizable=1;rotatable=1;deletable=1;locked=0;connectable=1;" parent="1" vertex="1">
            <mxGeometry x="-808" y="-1000" width="267" height="130" as="geometry" />
          </mxCell>
        </UserObject>
        <mxCell id="zwzRF9QWTuGjVV0RkywK-2" value="&lt;b&gt;&lt;font color=&quot;#000000&quot;&gt;Class and Object properties&lt;br&gt;&lt;/font&gt;&lt;/b&gt;&lt;br&gt;&lt;font style=&quot;border-color: var(--border-color);&quot; color=&quot;#00CC00&quot;&gt;has_direction&lt;/font&gt;&amp;nbsp;(&lt;font color=&quot;#fc49a4&quot;&gt;answer&lt;/font&gt;) &lt;font color=&quot;#000000&quot;&gt;enum: direction&lt;/font&gt;&amp;nbsp;&lt;font style=&quot;border-color: var(--border-color);&quot; color=&quot;#19c3c0&quot;&gt;isStatic:&lt;/font&gt;&amp;nbsp;&lt;font style=&quot;border-color: var(--border-color);&quot; color=&quot;#000000&quot;&gt;false&lt;/font&gt;" style="shape=note;whiteSpace=wrap;html=1;backgroundOutline=1;darkOpacity=0.05;fontColor=#00CCCC;align=center;editable=1;movable=1;resizable=1;rotatable=1;deletable=1;locked=0;connectable=1;" parent="1" vertex="1">
          <mxGeometry x="-527.47" y="-1140" width="667.47" height="140" as="geometry" />
        </mxCell>
        <UserObject label="&lt;b&gt;&lt;font color=&quot;#000000&quot;&gt;Relationships between objects&lt;/font&gt;&lt;/b&gt;&lt;br&gt;&lt;font color=&quot;#00cccc&quot;&gt;has_data&lt;/font&gt;&amp;nbsp;&lt;font color=&quot;#6666FF&quot;&gt;classes:&lt;/font&gt; &lt;font color=&quot;#ff66b3&quot;&gt;problem, data_element&lt;/font&gt;&amp;nbsp;&lt;font color=&quot;#6666FF&quot;&gt;is relationship between classes:&lt;/font&gt; &lt;font color=&quot;#000000&quot;&gt;false&lt;br&gt;&lt;/font&gt;&lt;font style=&quot;border-color: var(--border-color);&quot; color=&quot;#00cccc&quot;&gt;has_input_data(has_data)&lt;/font&gt;&amp;nbsp;&lt;font style=&quot;border-color: var(--border-color);&quot; color=&quot;#6666FF&quot;&gt;classes:&lt;/font&gt;&amp;nbsp;&lt;font style=&quot;border-color: var(--border-color);&quot; color=&quot;#ff66b3&quot;&gt;problem, data_element&lt;/font&gt;&amp;nbsp;&lt;font style=&quot;border-color: var(--border-color);&quot; color=&quot;#6666FF&quot;&gt;is relationship between classes:&lt;/font&gt;&amp;nbsp;&lt;font style=&quot;border-color: var(--border-color);&quot; color=&quot;#000000&quot;&gt;false&lt;br&gt;&lt;/font&gt;&lt;font style=&quot;border-color: var(--border-color);&quot; color=&quot;#00cccc&quot;&gt;has_output_data(has_data)&lt;/font&gt;&amp;nbsp;&lt;font style=&quot;border-color: var(--border-color);&quot; color=&quot;#6666FF&quot;&gt;classes:&lt;/font&gt;&amp;nbsp;&lt;font style=&quot;border-color: var(--border-color);&quot; color=&quot;#ff66b3&quot;&gt;problem, data_element&lt;/font&gt;&amp;nbsp;&lt;font style=&quot;border-color: var(--border-color);&quot; color=&quot;#6666FF&quot;&gt;is relationship between classes:&lt;/font&gt;&amp;nbsp;&lt;font style=&quot;border-color: var(--border-color);&quot; color=&quot;#000000&quot;&gt;false&lt;br&gt;&lt;/font&gt;&lt;font style=&quot;border-color: var(--border-color);&quot; color=&quot;#00cccc&quot;&gt;has_changed_data(has_data)&lt;/font&gt;&amp;nbsp;&lt;font style=&quot;border-color: var(--border-color);&quot; color=&quot;#6666FF&quot;&gt;classes:&lt;/font&gt;&amp;nbsp;&lt;font style=&quot;border-color: var(--border-color);&quot; color=&quot;#ff66b3&quot;&gt;problem, data_element&lt;/font&gt;&amp;nbsp;&lt;font style=&quot;border-color: var(--border-color);&quot; color=&quot;#6666FF&quot;&gt;is relationship between classes:&lt;/font&gt;&amp;nbsp;&lt;font style=&quot;border-color: var(--border-color);&quot; color=&quot;#000000&quot;&gt;false&lt;/font&gt;&lt;font style=&quot;border-color: var(--border-color);&quot; color=&quot;#000000&quot;&gt;&lt;br&gt;&lt;/font&gt;&lt;font color=&quot;#00cccc&quot;&gt;has_error&lt;/font&gt;&amp;nbsp;&lt;font style=&quot;border-color: var(--border-color);&quot; color=&quot;#6666FF&quot;&gt;classes:&lt;/font&gt;&amp;nbsp;&lt;font style=&quot;border-color: var(--border-color);&quot; color=&quot;#ff66b3&quot;&gt;answer, error&lt;/font&gt;&amp;nbsp;&lt;font style=&quot;border-color: var(--border-color);&quot; color=&quot;#6666FF&quot;&gt;is relationship between classes:&lt;/font&gt;&amp;nbsp;&lt;font style=&quot;border-color: var(--border-color);&quot; color=&quot;#000000&quot;&gt;false&lt;/font&gt;&lt;font color=&quot;#000000&quot;&gt;&lt;br&gt;&lt;/font&gt;" namesRels_0="" binFlags_0="010100" namesRels_1="" binFlags_1="010100" namesRels_2="" binFlags_2="000000" namesRels_3="" binFlags_3="000000" namesRels_4="" binFlags_4="000000" namesRels_5="" binFlags_5="000000" namesRels_6="" binFlags_6="000000" namesRels_7="" binFlags_7="000000" namesRels_8="" binFlags_8="000000" namesRels_9="" binFlags_9="000000" namesRels_10="" binFlags_10="000000" namesRels_11="" binFlags_11="000000" namesRels_12="" binFlags_12="000000" namesRels_13="" binFlags_13="000000" namesRels_14="" binFlags_14="000000" namesRels_15="" binFlags_15="000000" namesRels_16="" binFlags_16="000000" namesRels_17="" binFlags_17="000000" namesRels_18="" binFlags_18="000000" namesRels_19="" binFlags_19="000000" namesRels_20="" binFlags_20="000000" namesRels_21="" binFlags_21="000010" namesRels_22="" binFlags_22="000000" namesRels_23="" binFlags_23="000000" namesRels_24="" binFlags_24="000000" namesRels_25="" binFlags_25="000000" namesRels_26="" binFlags_26="000000" id="zwzRF9QWTuGjVV0RkywK-3">
          <mxCell style="shape=note;whiteSpace=wrap;html=1;backgroundOutline=1;darkOpacity=0.05;fontColor=#000000;align=center;editable=1;movable=1;resizable=1;rotatable=1;deletable=1;locked=0;connectable=1;" parent="1" vertex="1">
            <mxGeometry x="-527.47" y="-793.88" width="547.47" height="153.88" as="geometry" />
          </mxCell>
        </UserObject>
        <mxCell id="zwzRF9QWTuGjVV0RkywK-4" value="&lt;font color=&quot;#000000&quot;&gt;&lt;b&gt;Enum&lt;br&gt;&lt;/b&gt;&lt;/font&gt;&lt;font style=&quot;border-color: var(--border-color);&quot; color=&quot;#ff66b3&quot;&gt;direction&amp;nbsp;&lt;/font&gt;values:(&lt;font style=&quot;border-color: var(--border-color); background-color: rgb(255, 255, 255);&quot; color=&quot;#ff6666&quot;&gt;Input, Output, Changed&lt;/font&gt;&lt;span style=&quot;border-color: var(--border-color); background-color: rgb(255, 255, 255);&quot;&gt;) isLinear:&amp;nbsp;&lt;/span&gt;&lt;font style=&quot;border-color: var(--border-color); background-color: rgb(255, 255, 255);&quot; color=&quot;#123123&quot;&gt;false&lt;/font&gt;" style="shape=note;whiteSpace=wrap;html=1;backgroundOutline=1;darkOpacity=0.05;fontColor=#6666FF;align=center;editable=1;movable=1;resizable=1;rotatable=1;deletable=1;locked=0;connectable=1;" parent="1" vertex="1">
          <mxGeometry x="-1367" y="-1001" width="545" height="119" as="geometry" />
        </mxCell>
        <mxCell id="sEoibgZ7BYdF_jmhDTa4-1" value="&lt;font style=&quot;font-size: 50px;&quot;&gt;НАЧАЛО&lt;br&gt;&lt;br&gt;&lt;br&gt;&lt;br&gt;&lt;/font&gt;" style="html=1;shadow=0;dashed=0;align=center;verticalAlign=middle;shape=mxgraph.arrows2.arrow;dy=0.6;dx=40;direction=south;notch=0;" parent="1" vertex="1">
          <mxGeometry x="230" y="-1020" width="146" height="100" as="geometry" />
        </mxCell>
        <UserObject label="A - answer" type="START" id="V5ppIqO_QWqNn9_IyL2Q-1">
          <mxCell style="shape=process;whiteSpace=wrap;html=1;backgroundOutline=1;editable=1;movable=1;resizable=1;rotatable=1;deletable=1;locked=0;connectable=1;" parent="1" vertex="1">
            <mxGeometry x="243" y="-870" width="120" height="100" as="geometry" />
          </mxCell>
        </UserObject>
        <UserObject label="Начало" value="" type="bool" id="SOXnXS6Xs39oKBOuMpL5-1">
          <mxCell style="edgeStyle=orthogonalEdgeStyle;rounded=0;orthogonalLoop=1;jettySize=auto;html=1;editable=1;movable=1;resizable=1;rotatable=1;deletable=1;locked=0;connectable=1;exitX=0.5;exitY=1;exitDx=0;exitDy=0;entryX=0.5;entryY=0;entryDx=0;entryDy=0;" parent="1" target="flPeC8tQchr4XWNciWeo-1" edge="1">
            <mxGeometry relative="1" as="geometry">
              <mxPoint x="303" y="-770" as="sourcePoint" />
              <mxPoint x="303" y="-720" as="targetPoint" />
              <Array as="points">
                <mxPoint x="304" y="-770" />
                <mxPoint x="304" y="-744" />
                <mxPoint x="303" y="-744" />
              </Array>
            </mxGeometry>
          </mxCell>
        </UserObject>
        <UserObject label="Найти элемент данных &lt;b&gt;D&lt;/b&gt;&amp;nbsp; в ответе - &lt;b&gt;A&lt;/b&gt;" expression="find a { exist al [ $al is act ] { $al-&gt;student_next_latest($a) } and $d is data_element } " typeVar="data_element" nameVar="d" id="flPeC8tQchr4XWNciWeo-1">
          <mxCell style="rounded=1;whiteSpace=wrap;html=1;fontFamily=Helvetica;fontSize=12;editable=1;movable=1;resizable=1;rotatable=1;deletable=1;locked=0;connectable=1;" parent="1" vertex="1">
            <mxGeometry x="240" y="-720" width="126" height="60" as="geometry" />
          </mxCell>
        </UserObject>
        <UserObject label="Found" typeValue="" value="Found" id="RulJrFLxzsAsw8H4lcJl-2">
          <mxCell style="edgeStyle=orthogonalEdgeStyle;rounded=0;orthogonalLoop=1;jettySize=auto;html=1;editable=1;movable=1;resizable=1;rotatable=1;deletable=1;locked=0;connectable=1;exitX=0.5;exitY=1;exitDx=0;exitDy=0;entryX=0.5;entryY=0;entryDx=0;entryDy=0;" parent="1" source="flPeC8tQchr4XWNciWeo-1" target="RulJrFLxzsAsw8H4lcJl-3" edge="1">
            <mxGeometry relative="1" as="geometry">
              <mxPoint x="313" y="-650" as="sourcePoint" />
              <mxPoint x="300" y="-600" as="targetPoint" />
            </mxGeometry>
          </mxCell>
        </UserObject>
        <UserObject label="Найти направление данных &lt;b&gt;DIR_A&lt;/b&gt;&amp;nbsp; в ответе - &lt;b&gt;A&lt;/b&gt;" expression="find a { exist al [ $al is act ] { $al-&gt;student_next_latest($a) } and $d is data_element } " typeVar="data_element" nameVar="d" id="RulJrFLxzsAsw8H4lcJl-3">
          <mxCell style="rounded=1;whiteSpace=wrap;html=1;fontFamily=Helvetica;fontSize=12;editable=1;movable=1;resizable=1;rotatable=1;deletable=1;locked=0;connectable=1;" parent="1" vertex="1">
            <mxGeometry x="240" y="-614" width="126" height="60" as="geometry" />
          </mxCell>
        </UserObject>
        <UserObject label="Found" typeValue="" value="Found" id="udRXDrmYupxmstGZp1dY-1">
          <mxCell style="edgeStyle=orthogonalEdgeStyle;rounded=0;orthogonalLoop=1;jettySize=auto;html=1;editable=1;movable=1;resizable=1;rotatable=1;deletable=1;locked=0;connectable=1;exitX=0.5;exitY=1;exitDx=0;exitDy=0;entryX=0.5;entryY=0;entryDx=0;entryDy=0;" parent="1" source="RulJrFLxzsAsw8H4lcJl-3" target="udRXDrmYupxmstGZp1dY-2" edge="1">
            <mxGeometry relative="1" as="geometry">
              <mxPoint x="313" y="-528" as="sourcePoint" />
              <mxPoint x="300" y="-490" as="targetPoint" />
            </mxGeometry>
          </mxCell>
        </UserObject>
        <UserObject label="Найти направление данных &lt;b&gt;DIR_D&lt;/b&gt;&amp;nbsp; для элемента данных&amp;nbsp;&lt;b&gt;D&lt;/b&gt;" expression="find a { exist al [ $al is act ] { $al-&gt;student_next_latest($a) } and $d is data_element } " typeVar="data_element" nameVar="d" id="udRXDrmYupxmstGZp1dY-2">
          <mxCell style="rounded=1;whiteSpace=wrap;html=1;fontFamily=Helvetica;fontSize=12;editable=1;movable=1;resizable=1;rotatable=1;deletable=1;locked=0;connectable=1;" parent="1" vertex="1">
            <mxGeometry x="240" y="-510" width="126" height="60" as="geometry" />
          </mxCell>
        </UserObject>
        <UserObject label="Found" typeValue="" value="Found" id="hr_5lXGMoqgK1mRPHIrU-1">
          <mxCell style="edgeStyle=orthogonalEdgeStyle;rounded=0;orthogonalLoop=1;jettySize=auto;html=1;editable=1;movable=1;resizable=1;rotatable=1;deletable=1;locked=0;connectable=1;exitX=0.5;exitY=1;exitDx=0;exitDy=0;entryX=0.5;entryY=0;entryDx=0;entryDy=0;" parent="1" source="udRXDrmYupxmstGZp1dY-2" target="0IdDL9toqYaGYHZkSfDA-1" edge="1">
            <mxGeometry relative="1" as="geometry">
              <mxPoint x="387" y="-435" as="sourcePoint" />
              <mxPoint x="303" y="-400" as="targetPoint" />
            </mxGeometry>
          </mxCell>
        </UserObject>
        <mxCell id="0IdDL9toqYaGYHZkSfDA-1" value="Проверка комбинаций&amp;nbsp;&lt;b style=&quot;border-color: var(--border-color);&quot;&gt;DIR_A&amp;nbsp;&lt;/b&gt;&lt;span style=&quot;border-color: var(--border-color);&quot;&gt;и&lt;br&gt;&lt;b&gt;&amp;nbsp;&lt;/b&gt;&lt;/span&gt;&lt;b style=&quot;border-color: var(--border-color);&quot;&gt;DIR_D&lt;/b&gt;" style="shape=hexagon;perimeter=hexagonPerimeter2;whiteSpace=wrap;html=1;fixedSize=1;" parent="1" vertex="1">
          <mxGeometry x="183" y="-400" width="240" height="80" as="geometry" />
        </mxCell>
        <mxCell id="TAqSUQUJzw9B-9NNp3Ns-6" value="" style="edgeStyle=orthogonalEdgeStyle;rounded=0;orthogonalLoop=1;jettySize=auto;html=1;" edge="1" parent="1" source="zafelozPLYs-jfqdHvCG-1" target="TAqSUQUJzw9B-9NNp3Ns-5">
          <mxGeometry relative="1" as="geometry" />
        </mxCell>
        <mxCell id="zafelozPLYs-jfqdHvCG-1" value="Студент выбрал направление &quot;входной&quot;, и элемент данных является входным" style="ellipse;whiteSpace=wrap;html=1;" parent="1" vertex="1">
          <mxGeometry x="-30" y="-300" width="160" height="80" as="geometry" />
        </mxCell>
        <mxCell id="TAqSUQUJzw9B-9NNp3Ns-8" value="" style="edgeStyle=orthogonalEdgeStyle;rounded=0;orthogonalLoop=1;jettySize=auto;html=1;" edge="1" parent="1" source="zafelozPLYs-jfqdHvCG-2" target="TAqSUQUJzw9B-9NNp3Ns-7">
          <mxGeometry relative="1" as="geometry" />
        </mxCell>
        <mxCell id="zafelozPLYs-jfqdHvCG-2" value="Студент выбрал направление &quot;выходной&quot;, и элемент данных является входным" style="ellipse;whiteSpace=wrap;html=1;" parent="1" vertex="1">
          <mxGeometry x="-230" y="-300" width="160" height="80" as="geometry" />
        </mxCell>
        <mxCell id="TAqSUQUJzw9B-9NNp3Ns-18" value="" style="edgeStyle=orthogonalEdgeStyle;rounded=0;orthogonalLoop=1;jettySize=auto;html=1;" edge="1" parent="1" source="zafelozPLYs-jfqdHvCG-3" target="TAqSUQUJzw9B-9NNp3Ns-9">
          <mxGeometry relative="1" as="geometry" />
        </mxCell>
        <mxCell id="zafelozPLYs-jfqdHvCG-3" value="Студент выбрал направление &quot;обновляемый&quot;, и элемент данных является входным" style="ellipse;whiteSpace=wrap;html=1;" parent="1" vertex="1">
          <mxGeometry x="-430" y="-300" width="180" height="80" as="geometry" />
        </mxCell>
        <mxCell id="TAqSUQUJzw9B-9NNp3Ns-17" value="" style="edgeStyle=orthogonalEdgeStyle;rounded=0;orthogonalLoop=1;jettySize=auto;html=1;" edge="1" parent="1" source="zafelozPLYs-jfqdHvCG-4" target="TAqSUQUJzw9B-9NNp3Ns-10">
          <mxGeometry relative="1" as="geometry" />
        </mxCell>
        <mxCell id="zafelozPLYs-jfqdHvCG-4" value="Студент выбрал направление &quot;входной&quot;, и элемент данных является выходным" style="ellipse;whiteSpace=wrap;html=1;" parent="1" vertex="1">
          <mxGeometry x="-620" y="-300" width="160" height="80" as="geometry" />
        </mxCell>
        <mxCell id="TAqSUQUJzw9B-9NNp3Ns-4" value="" style="edgeStyle=orthogonalEdgeStyle;rounded=0;orthogonalLoop=1;jettySize=auto;html=1;" edge="1" parent="1" source="zafelozPLYs-jfqdHvCG-5" target="TAqSUQUJzw9B-9NNp3Ns-3">
          <mxGeometry relative="1" as="geometry" />
        </mxCell>
        <mxCell id="zafelozPLYs-jfqdHvCG-5" value="Студент выбрал направление &quot;выходной&quot;, и элемент данных является выходным" style="ellipse;whiteSpace=wrap;html=1;" parent="1" vertex="1">
          <mxGeometry x="-820" y="-300" width="160" height="80" as="geometry" />
        </mxCell>
        <mxCell id="TAqSUQUJzw9B-9NNp3Ns-16" value="" style="edgeStyle=orthogonalEdgeStyle;rounded=0;orthogonalLoop=1;jettySize=auto;html=1;" edge="1" parent="1" source="zafelozPLYs-jfqdHvCG-6" target="TAqSUQUJzw9B-9NNp3Ns-11">
          <mxGeometry relative="1" as="geometry" />
        </mxCell>
        <mxCell id="zafelozPLYs-jfqdHvCG-6" value="Студент выбрал направление &quot;обновляемый&quot;, и элемент данных является выходным" style="ellipse;whiteSpace=wrap;html=1;" parent="1" vertex="1">
          <mxGeometry x="-1020" y="-300" width="180" height="80" as="geometry" />
        </mxCell>
        <mxCell id="TAqSUQUJzw9B-9NNp3Ns-15" value="" style="edgeStyle=orthogonalEdgeStyle;rounded=0;orthogonalLoop=1;jettySize=auto;html=1;" edge="1" parent="1" source="zafelozPLYs-jfqdHvCG-7" target="TAqSUQUJzw9B-9NNp3Ns-12">
          <mxGeometry relative="1" as="geometry" />
        </mxCell>
        <mxCell id="zafelozPLYs-jfqdHvCG-7" value="Студент выбрал направление &quot;входной&quot;, и элемент данных является обновляемым" style="ellipse;whiteSpace=wrap;html=1;" parent="1" vertex="1">
          <mxGeometry x="-1200" y="-300" width="160" height="80" as="geometry" />
        </mxCell>
        <mxCell id="TAqSUQUJzw9B-9NNp3Ns-14" value="" style="edgeStyle=orthogonalEdgeStyle;rounded=0;orthogonalLoop=1;jettySize=auto;html=1;" edge="1" parent="1" source="zafelozPLYs-jfqdHvCG-8" target="TAqSUQUJzw9B-9NNp3Ns-13">
          <mxGeometry relative="1" as="geometry" />
        </mxCell>
        <mxCell id="zafelozPLYs-jfqdHvCG-8" value="Студент выбрал направление &quot;выходной&quot;, и элемент данных является обновляемым" style="ellipse;whiteSpace=wrap;html=1;" parent="1" vertex="1">
          <mxGeometry x="-1400" y="-300" width="160" height="80" as="geometry" />
        </mxCell>
        <mxCell id="TAqSUQUJzw9B-9NNp3Ns-2" value="" style="edgeStyle=orthogonalEdgeStyle;rounded=0;orthogonalLoop=1;jettySize=auto;html=1;" edge="1" parent="1" source="zafelozPLYs-jfqdHvCG-9" target="TAqSUQUJzw9B-9NNp3Ns-1">
          <mxGeometry relative="1" as="geometry" />
        </mxCell>
        <mxCell id="zafelozPLYs-jfqdHvCG-9" value="Студент выбрал направление &quot;обновляемый&quot;, и элемент данных является обновляемым" style="ellipse;whiteSpace=wrap;html=1;" parent="1" vertex="1">
          <mxGeometry x="-1620" y="-300" width="200" height="80" as="geometry" />
        </mxCell>
        <mxCell id="8l0CiaO6DEkZfXl9z8SV-1" value="" style="endArrow=classic;html=1;rounded=0;exitX=0;exitY=0.5;exitDx=0;exitDy=0;entryX=0.5;entryY=0;entryDx=0;entryDy=0;edgeStyle=orthogonalEdgeStyle;" parent="1" source="0IdDL9toqYaGYHZkSfDA-1" target="zafelozPLYs-jfqdHvCG-1" edge="1">
          <mxGeometry width="50" height="50" relative="1" as="geometry">
            <mxPoint x="80" y="-220" as="sourcePoint" />
            <mxPoint x="130" y="-270" as="targetPoint" />
          </mxGeometry>
        </mxCell>
        <mxCell id="8l0CiaO6DEkZfXl9z8SV-2" value="" style="endArrow=classic;html=1;rounded=0;exitX=0;exitY=0.5;exitDx=0;exitDy=0;edgeStyle=orthogonalEdgeStyle;entryX=0.5;entryY=0;entryDx=0;entryDy=0;" parent="1" source="0IdDL9toqYaGYHZkSfDA-1" target="zafelozPLYs-jfqdHvCG-2" edge="1">
          <mxGeometry width="50" height="50" relative="1" as="geometry">
            <mxPoint x="-17" y="-370" as="sourcePoint" />
            <mxPoint x="-150" y="-310" as="targetPoint" />
          </mxGeometry>
        </mxCell>
        <mxCell id="8l0CiaO6DEkZfXl9z8SV-3" value="" style="endArrow=classic;html=1;rounded=0;exitX=0;exitY=0.5;exitDx=0;exitDy=0;edgeStyle=orthogonalEdgeStyle;entryX=0.5;entryY=0;entryDx=0;entryDy=0;" parent="1" source="0IdDL9toqYaGYHZkSfDA-1" target="zafelozPLYs-jfqdHvCG-3" edge="1">
          <mxGeometry width="50" height="50" relative="1" as="geometry">
            <mxPoint x="-17" y="-360" as="sourcePoint" />
            <mxPoint x="-350" y="-300" as="targetPoint" />
          </mxGeometry>
        </mxCell>
        <mxCell id="8l0CiaO6DEkZfXl9z8SV-4" value="" style="endArrow=classic;html=1;rounded=0;exitX=0;exitY=0.5;exitDx=0;exitDy=0;edgeStyle=orthogonalEdgeStyle;entryX=0.5;entryY=0;entryDx=0;entryDy=0;" parent="1" source="0IdDL9toqYaGYHZkSfDA-1" target="zafelozPLYs-jfqdHvCG-4" edge="1">
          <mxGeometry width="50" height="50" relative="1" as="geometry">
            <mxPoint x="-18" y="-410" as="sourcePoint" />
            <mxPoint x="-541" y="-350" as="targetPoint" />
          </mxGeometry>
        </mxCell>
        <mxCell id="8l0CiaO6DEkZfXl9z8SV-5" value="" style="endArrow=classic;html=1;rounded=0;exitX=0;exitY=0.5;exitDx=0;exitDy=0;edgeStyle=orthogonalEdgeStyle;entryX=0.5;entryY=0;entryDx=0;entryDy=0;" parent="1" source="0IdDL9toqYaGYHZkSfDA-1" target="zafelozPLYs-jfqdHvCG-5" edge="1">
          <mxGeometry width="50" height="50" relative="1" as="geometry">
            <mxPoint x="-47" y="-390" as="sourcePoint" />
            <mxPoint x="-770" y="-330" as="targetPoint" />
          </mxGeometry>
        </mxCell>
        <mxCell id="8l0CiaO6DEkZfXl9z8SV-6" value="" style="endArrow=classic;html=1;rounded=0;exitX=0;exitY=0.5;exitDx=0;exitDy=0;edgeStyle=orthogonalEdgeStyle;entryX=0.5;entryY=0;entryDx=0;entryDy=0;" parent="1" source="0IdDL9toqYaGYHZkSfDA-1" target="zafelozPLYs-jfqdHvCG-6" edge="1">
          <mxGeometry width="50" height="50" relative="1" as="geometry">
            <mxPoint x="-7" y="-400" as="sourcePoint" />
            <mxPoint x="-930" y="-340" as="targetPoint" />
          </mxGeometry>
        </mxCell>
        <mxCell id="8l0CiaO6DEkZfXl9z8SV-7" value="" style="endArrow=classic;html=1;rounded=0;exitX=0;exitY=0.5;exitDx=0;exitDy=0;edgeStyle=orthogonalEdgeStyle;entryX=0.5;entryY=0;entryDx=0;entryDy=0;" parent="1" source="0IdDL9toqYaGYHZkSfDA-1" target="zafelozPLYs-jfqdHvCG-7" edge="1">
          <mxGeometry width="50" height="50" relative="1" as="geometry">
            <mxPoint x="-17" y="-420" as="sourcePoint" />
            <mxPoint x="-1130" y="-360" as="targetPoint" />
          </mxGeometry>
        </mxCell>
        <mxCell id="8l0CiaO6DEkZfXl9z8SV-8" value="" style="endArrow=classic;html=1;rounded=0;exitX=0;exitY=0.5;exitDx=0;exitDy=0;edgeStyle=orthogonalEdgeStyle;entryX=0.5;entryY=0;entryDx=0;entryDy=0;" parent="1" source="0IdDL9toqYaGYHZkSfDA-1" target="zafelozPLYs-jfqdHvCG-8" edge="1">
          <mxGeometry width="50" height="50" relative="1" as="geometry">
            <mxPoint x="83" y="-430" as="sourcePoint" />
            <mxPoint x="-1220" y="-370" as="targetPoint" />
          </mxGeometry>
        </mxCell>
        <mxCell id="8l0CiaO6DEkZfXl9z8SV-9" value="" style="endArrow=classic;html=1;rounded=0;exitX=0;exitY=0.5;exitDx=0;exitDy=0;edgeStyle=orthogonalEdgeStyle;entryX=0.5;entryY=0;entryDx=0;entryDy=0;" parent="1" source="0IdDL9toqYaGYHZkSfDA-1" target="zafelozPLYs-jfqdHvCG-9" edge="1">
          <mxGeometry width="50" height="50" relative="1" as="geometry">
            <mxPoint x="93" y="-430" as="sourcePoint" />
            <mxPoint x="-1410" y="-370" as="targetPoint" />
          </mxGeometry>
        </mxCell>
        <mxCell id="TAqSUQUJzw9B-9NNp3Ns-1" value="" style="rounded=1;whiteSpace=wrap;html=1;fillColor=#d5e8d4;strokeColor=#82b366;" vertex="1" parent="1">
          <mxGeometry x="-1580" y="-180" width="120" height="60" as="geometry" />
        </mxCell>
        <mxCell id="TAqSUQUJzw9B-9NNp3Ns-3" value="" style="rounded=1;whiteSpace=wrap;html=1;fillColor=#d5e8d4;strokeColor=#82b366;" vertex="1" parent="1">
          <mxGeometry x="-800" y="-180" width="120" height="60" as="geometry" />
        </mxCell>
        <mxCell id="TAqSUQUJzw9B-9NNp3Ns-5" value="" style="rounded=1;whiteSpace=wrap;html=1;fillColor=#d5e8d4;strokeColor=#82b366;" vertex="1" parent="1">
          <mxGeometry x="-10" y="-180" width="120" height="60" as="geometry" />
        </mxCell>
        <mxCell id="TAqSUQUJzw9B-9NNp3Ns-7" value="" style="rounded=1;whiteSpace=wrap;html=1;fillColor=#f8cecc;strokeColor=#b85450;" vertex="1" parent="1">
          <mxGeometry x="-210" y="-180" width="120" height="60" as="geometry" />
        </mxCell>
        <mxCell id="TAqSUQUJzw9B-9NNp3Ns-9" value="" style="rounded=1;whiteSpace=wrap;html=1;fillColor=#f8cecc;strokeColor=#b85450;" vertex="1" parent="1">
          <mxGeometry x="-400" y="-180" width="120" height="60" as="geometry" />
        </mxCell>
        <mxCell id="TAqSUQUJzw9B-9NNp3Ns-10" value="" style="rounded=1;whiteSpace=wrap;html=1;fillColor=#f8cecc;strokeColor=#b85450;" vertex="1" parent="1">
          <mxGeometry x="-600" y="-180" width="120" height="60" as="geometry" />
        </mxCell>
        <mxCell id="TAqSUQUJzw9B-9NNp3Ns-11" value="" style="rounded=1;whiteSpace=wrap;html=1;fillColor=#f8cecc;strokeColor=#b85450;" vertex="1" parent="1">
          <mxGeometry x="-990" y="-180" width="120" height="60" as="geometry" />
        </mxCell>
        <mxCell id="TAqSUQUJzw9B-9NNp3Ns-12" value="" style="rounded=1;whiteSpace=wrap;html=1;fillColor=#f8cecc;strokeColor=#b85450;" vertex="1" parent="1">
          <mxGeometry x="-1180" y="-180" width="120" height="60" as="geometry" />
        </mxCell>
        <mxCell id="TAqSUQUJzw9B-9NNp3Ns-13" value="" style="rounded=1;whiteSpace=wrap;html=1;fillColor=#f8cecc;strokeColor=#b85450;" vertex="1" parent="1">
          <mxGeometry x="-1380" y="-180" width="120" height="60" as="geometry" />
        </mxCell>
      </root>
    </mxGraphModel>
  </diagram>
</mxfile>
